<?xml version="1.0" standalone="no"?>
<!DOCTYPE svg PUBLIC "-//W3C//DTD SVG 1.1//EN"
 "http://www.w3.org/Graphics/SVG/1.1/DTD/svg11.dtd">
<!-- Created with svg_stack (http://github.com/astraw/svg_stack) -->
<svg xmlns="http://www.w3.org/2000/svg" xmlns:sodipodi="http://sodipodi.sourceforge.net/DTD/sodipodi-0.dtd" xmlns:ev="http://www.w3.org/2001/xml-events" xmlns:xlink="http://www.w3.org/1999/xlink" xmlns:rdkit="http://www.rdkit.org/xml" version="1.1" width="1418.274" height="615.0">
  <defs/>
  <g id="id0:id0" transform="translate(0,0)">
    <text fill="black" font-family="Arial" font-size="15px" x="20" y="20" font-weight="Bold">POSITIVE</text>
  </g>
  <g id="id1:id1" transform="translate(10.462699999999927,60.0)"><g id="id1:id0:id0" transform="translate(0,26.0)"><g id="id1:id0:id0:id0" transform="matrix(1.0,0,0,1.0,72.24365,0.0)"><!-- END OF HEADER -->
<rect style="opacity:1.0;fill:#FFFFFF;stroke:none" width="135" height="100" x="0" y="0"> </rect>
<path class="bond-0" d="M 55.25,53.75 L 78.8937,53.75" style="fill:none;fill-rule:evenodd;stroke:#FF0000;stroke-width:2.0px;stroke-linecap:butt;stroke-linejoin:miter;stroke-opacity:1"/>
<path class="bond-0" d="M 55.25,46.25 L 78.8937,46.25" style="fill:none;fill-rule:evenodd;stroke:#FF0000;stroke-width:2.0px;stroke-linecap:butt;stroke-linejoin:miter;stroke-opacity:1"/>
<path class="atom-0" d="M 44.625 50.03 Q 44.625 47.48, 45.885 46.055 Q 47.145 44.63, 49.5 44.63 Q 51.855 44.63, 53.115 46.055 Q 54.375 47.48, 54.375 50.03 Q 54.375 52.61, 53.1 54.08 Q 51.825 55.535, 49.5 55.535 Q 47.16 55.535, 45.885 54.08 Q 44.625 52.625, 44.625 50.03 M 49.5 54.335 Q 51.12 54.335, 51.99 53.255 Q 52.875 52.16, 52.875 50.03 Q 52.875 47.945, 51.99 46.895 Q 51.12 45.83, 49.5 45.83 Q 47.88 45.83, 46.995 46.88 Q 46.125 47.93, 46.125 50.03 Q 46.125 52.175, 46.995 53.255 Q 47.88 54.335, 49.5 54.335 " fill="#FF0000"/>
<path class="atom-1" d="M 79.625 50.03 Q 79.625 47.48, 80.885 46.055 Q 82.145 44.63, 84.5 44.63 Q 86.855 44.63, 88.115 46.055 Q 89.375 47.48, 89.375 50.03 Q 89.375 52.61, 88.1 54.08 Q 86.825 55.535, 84.5 55.535 Q 82.16 55.535, 80.885 54.08 Q 79.625 52.625, 79.625 50.03 M 84.5 54.335 Q 86.12 54.335, 86.99 53.255 Q 87.875 52.16, 87.875 50.03 Q 87.875 47.945, 86.99 46.895 Q 86.12 45.83, 84.5 45.83 Q 82.88 45.83, 81.995 46.88 Q 81.125 47.93, 81.125 50.03 Q 81.125 52.175, 81.995 53.255 Q 82.88 54.335, 84.5 54.335 " fill="#FF0000"/>
</g>
  <g id="id1:id0:id1:id1" transform="translate(0.0,100.0)">
    <text fill="black" font-family="Arial" font-size="15px" x="20" y="20">SMILES: O=O</text>
    <text fill="black" font-family="Arial" font-size="15px" x="20" y="40">2332 occurences (29.65%)</text>
    <text fill="black" font-family="Arial" font-size="15px" x="20" y="60">Average impact on prediction: 0.903</text>
  </g>
</g>
  <g id="id1:id1:id1" transform="translate(279.4873,0.0)"><g id="id1:id1:id0:id0" transform="matrix(1.0,0,0,1.0,56.68870000000001,0.0)"><!-- END OF HEADER -->
<rect style="opacity:1.0;fill:#FFFFFF;stroke:none" width="166" height="152" x="0" y="0"> </rect>
<path class="bond-0" d="M 111.318,96.6205 L 110.444,97.5147" style="fill:none;fill-rule:evenodd;stroke:#000000;stroke-width:1.0px;stroke-linecap:butt;stroke-linejoin:miter;stroke-opacity:1"/>
<path class="bond-0" d="M 107.107,91.6334 L 105.36,93.4218" style="fill:none;fill-rule:evenodd;stroke:#000000;stroke-width:1.0px;stroke-linecap:butt;stroke-linejoin:miter;stroke-opacity:1"/>
<path class="bond-0" d="M 102.896,86.6464 L 100.275,89.329" style="fill:none;fill-rule:evenodd;stroke:#000000;stroke-width:1.0px;stroke-linecap:butt;stroke-linejoin:miter;stroke-opacity:1"/>
<path class="bond-0" d="M 98.6845,81.6594 L 95.1907,85.2362" style="fill:none;fill-rule:evenodd;stroke:#0000FF;stroke-width:1.0px;stroke-linecap:butt;stroke-linejoin:miter;stroke-opacity:1"/>
<path class="bond-0" d="M 94.4734,76.6724 L 90.1061,81.1433" style="fill:none;fill-rule:evenodd;stroke:#0000FF;stroke-width:1.0px;stroke-linecap:butt;stroke-linejoin:miter;stroke-opacity:1"/>
<path class="bond-0" d="M 90.2623,71.6853 L 85.0216,77.0505" style="fill:none;fill-rule:evenodd;stroke:#0000FF;stroke-width:1.0px;stroke-linecap:butt;stroke-linejoin:miter;stroke-opacity:1"/>
<path class="bond-1" d="M 87.2837,65.7523 L 97.7137,58.0724" style="fill:none;fill-rule:evenodd;stroke:#0000FF;stroke-width:2.0px;stroke-linecap:butt;stroke-linejoin:miter;stroke-opacity:1"/>
<path class="bond-1" d="M 97.7137,58.0724 L 108.144,50.3925" style="fill:none;fill-rule:evenodd;stroke:#000000;stroke-width:2.0px;stroke-linecap:butt;stroke-linejoin:miter;stroke-opacity:1"/>
<path class="bond-2" d="M 77.5193,66.5981 L 63.9953,59.1865" style="fill:none;fill-rule:evenodd;stroke:#0000FF;stroke-width:2.0px;stroke-linecap:butt;stroke-linejoin:miter;stroke-opacity:1"/>
<path class="bond-2" d="M 63.9953,59.1865 L 50.4712,51.775" style="fill:none;fill-rule:evenodd;stroke:#000000;stroke-width:2.0px;stroke-linecap:butt;stroke-linejoin:miter;stroke-opacity:1"/>
<path class="atom-1" d="M 80.1112 63.995 L 83.5912 69.62 Q 83.9362 70.175, 84.4912 71.18 Q 85.0462 72.185, 85.0762 72.245 L 85.0762 63.995 L 86.4862 63.995 L 86.4862 74.615 L 85.0312 74.615 L 81.2962 68.465 Q 80.8612 67.745, 80.3962 66.92 Q 79.9462 66.095, 79.8112 65.84 L 79.8112 74.615 L 78.4312 74.615 L 78.4312 63.995 L 80.1112 63.995 " fill="#0000FF"/>
</g>
  <g id="id1:id1:id1:id1" transform="translate(0.0,152.0)">
    <text fill="black" font-family="Arial" font-size="15px" x="20" y="20">SMILES: CN(C)C</text>
    <text fill="black" font-family="Arial" font-size="15px" x="20" y="40">1877 occurences (23.87%)</text>
    <text fill="black" font-family="Arial" font-size="15px" x="20" y="60">Average impact on prediction: 0.812</text>
  </g>
</g>
  <g id="id1:id2:id2" transform="translate(558.8647000000001,1.0)"><g id="id1:id2:id0:id0" transform="matrix(1.0,0,0,1.0,73.24365,0.0)"><!-- END OF HEADER -->
<rect style="opacity:1.0;fill:#FFFFFF;stroke:none" width="133" height="150" x="0" y="0"> </rect>
<path class="bond-0" d="M 75.3478,94.2682 L 61.8238,86.8567" style="fill:none;fill-rule:evenodd;stroke:#0000FF;stroke-width:2.0px;stroke-linecap:butt;stroke-linejoin:miter;stroke-opacity:1"/>
<path class="bond-0" d="M 61.8238,86.8567 L 48.2997,79.4451" style="fill:none;fill-rule:evenodd;stroke:#000000;stroke-width:2.0px;stroke-linecap:butt;stroke-linejoin:miter;stroke-opacity:1"/>
<path class="bond-1" d="M 52.0493,79.3901 L 51.5868,47.8601" style="fill:none;fill-rule:evenodd;stroke:#000000;stroke-width:2.0px;stroke-linecap:butt;stroke-linejoin:miter;stroke-opacity:1"/>
<path class="bond-1" d="M 44.5501,79.5001 L 44.0876,47.9701" style="fill:none;fill-rule:evenodd;stroke:#000000;stroke-width:2.0px;stroke-linecap:butt;stroke-linejoin:miter;stroke-opacity:1"/>
<path class="atom-0" d="M 77.9397 91.6651 L 81.4197 97.2901 Q 81.7647 97.8451, 82.3197 98.8501 Q 82.8747 99.8551, 82.9047 99.9151 L 82.9047 91.6651 L 84.3147 91.6651 L 84.3147 102.285 L 82.8597 102.285 L 79.1247 96.1351 Q 78.6897 95.4151, 78.2247 94.5901 Q 77.7747 93.7651, 77.6397 93.5101 L 77.6397 102.285 L 76.2597 102.285 L 76.2597 91.6651 L 77.9397 91.6651 " fill="#0000FF"/>
</g>
  <g id="id1:id2:id1:id1" transform="translate(0.0,150.0)">
    <text fill="black" font-family="Arial" font-size="15px" x="20" y="20">SMILES: C=CN</text>
    <text fill="black" font-family="Arial" font-size="15px" x="20" y="40">1260 occurences (16.02%)</text>
    <text fill="black" font-family="Arial" font-size="15px" x="20" y="60">Average impact on prediction: 0.333</text>
  </g>
</g>
  <g id="id1:id3:id3" transform="translate(838.3520000000001,26.0)"><g id="id1:id3:id0:id0" transform="matrix(1.0,0,0,1.0,72.25465,0.0)"><!-- END OF HEADER -->
<rect style="opacity:1.0;fill:#FFFFFF;stroke:none" width="135" height="100" x="0" y="0"> </rect>
<path class="bond-0" d="M 54.9875,50 L 78.6313,50" style="fill:none;fill-rule:evenodd;stroke:#FF0000;stroke-width:2.0px;stroke-linecap:butt;stroke-linejoin:miter;stroke-opacity:1"/>
<path class="atom-0" d="M 35.3025 44.75 L 36.7425 44.75 L 36.7425 49.265 L 42.1725 49.265 L 42.1725 44.75 L 43.6125 44.75 L 43.6125 55.37 L 42.1725 55.37 L 42.1725 50.465 L 36.7425 50.465 L 36.7425 55.37 L 35.3025 55.37 L 35.3025 44.75 " fill="#FF0000"/>
<path class="atom-0" d="M 44.3625 50.03 Q 44.3625 47.48, 45.6225 46.055 Q 46.8825 44.63, 49.2375 44.63 Q 51.5925 44.63, 52.8525 46.055 Q 54.1125 47.48, 54.1125 50.03 Q 54.1125 52.61, 52.8375 54.08 Q 51.5625 55.535, 49.2375 55.535 Q 46.8975 55.535, 45.6225 54.08 Q 44.3625 52.625, 44.3625 50.03 M 49.2375 54.335 Q 50.8575 54.335, 51.7275 53.255 Q 52.6125 52.16, 52.6125 50.03 Q 52.6125 47.945, 51.7275 46.895 Q 50.8575 45.83, 49.2375 45.83 Q 47.6175 45.83, 46.7325 46.88 Q 45.8625 47.93, 45.8625 50.03 Q 45.8625 52.175, 46.7325 53.255 Q 47.6175 54.335, 49.2375 54.335 " fill="#FF0000"/>
<path class="atom-1" d="M 79.3625 50.03 Q 79.3625 47.48, 80.6225 46.055 Q 81.8825 44.63, 84.2375 44.63 Q 86.5925 44.63, 87.8525 46.055 Q 89.1125 47.48, 89.1125 50.03 Q 89.1125 52.61, 87.8375 54.08 Q 86.5625 55.535, 84.2375 55.535 Q 81.8975 55.535, 80.6225 54.08 Q 79.3625 52.625, 79.3625 50.03 M 84.2375 54.335 Q 85.8575 54.335, 86.7275 53.255 Q 87.6125 52.16, 87.6125 50.03 Q 87.6125 47.945, 86.7275 46.895 Q 85.8575 45.83, 84.2375 45.83 Q 82.6175 45.83, 81.7325 46.88 Q 80.8625 47.93, 80.8625 50.03 Q 80.8625 52.175, 81.7325 53.255 Q 82.6175 54.335, 84.2375 54.335 " fill="#FF0000"/>
<path class="atom-1" d="M 90.3875 44.75 L 91.8275 44.75 L 91.8275 49.265 L 97.2575 49.265 L 97.2575 44.75 L 98.6975 44.75 L 98.6975 55.37 L 97.2575 55.37 L 97.2575 50.465 L 91.8275 50.465 L 91.8275 55.37 L 90.3875 55.37 L 90.3875 44.75 " fill="#FF0000"/>
</g>
  <g id="id1:id3:id1:id1" transform="translate(0.0,100.0)">
    <text fill="black" font-family="Arial" font-size="15px" x="20" y="20">SMILES: OO</text>
    <text fill="black" font-family="Arial" font-size="15px" x="20" y="40">250 occurences (3.18%)</text>
    <text fill="black" font-family="Arial" font-size="15px" x="20" y="60">Average impact on prediction: 0.428</text>
  </g>
</g>
  <g id="id1:id4:id4" transform="translate(1117.8613,13.5)"><g id="id1:id4:id0:id0" transform="matrix(1.0,0,0,1.0,53.24365,0.0)"><!-- END OF HEADER -->
<rect style="opacity:1.0;fill:#FFFFFF;stroke:none" width="173" height="125" x="0" y="0"> </rect>
<path class="bond-0" d="M 91.1992,70.2494 L 104.101,61.5852" style="fill:none;fill-rule:evenodd;stroke:#FF0000;stroke-width:2.0px;stroke-linecap:butt;stroke-linejoin:miter;stroke-opacity:1"/>
<path class="bond-0" d="M 104.101,61.5852 L 117.004,52.9211" style="fill:none;fill-rule:evenodd;stroke:#000000;stroke-width:2.0px;stroke-linecap:butt;stroke-linejoin:miter;stroke-opacity:1"/>
<path class="bond-1" d="M 79.2868,70.4249 L 67.1142,62.5305" style="fill:none;fill-rule:evenodd;stroke:#FF0000;stroke-width:2.0px;stroke-linecap:butt;stroke-linejoin:miter;stroke-opacity:1"/>
<path class="bond-1" d="M 67.1142,62.5305 L 54.9416,54.6361" style="fill:none;fill-rule:evenodd;stroke:#000000;stroke-width:2.0px;stroke-linecap:butt;stroke-linejoin:miter;stroke-opacity:1"/>
<path class="atom-0" d="M 80.3387 74.2987 Q 80.3387 71.7487, 81.5987 70.3237 Q 82.8587 68.8987, 85.2137 68.8987 Q 87.5687 68.8987, 88.8287 70.3237 Q 90.0887 71.7487, 90.0887 74.2987 Q 90.0887 76.8787, 88.8137 78.3487 Q 87.5387 79.8037, 85.2137 79.8037 Q 82.8737 79.8037, 81.5987 78.3487 Q 80.3387 76.8937, 80.3387 74.2987 M 85.2137 78.6037 Q 86.8337 78.6037, 87.7037 77.5237 Q 88.5887 76.4287, 88.5887 74.2987 Q 88.5887 72.2137, 87.7037 71.1637 Q 86.8337 70.0987, 85.2137 70.0987 Q 83.5937 70.0987, 82.7087 71.1487 Q 81.8387 72.1987, 81.8387 74.2987 Q 81.8387 76.4437, 82.7087 77.5237 Q 83.5937 78.6037, 85.2137 78.6037 " fill="#FF0000"/>
<path class="atom-1" d="M 117.934 44.1963 L 119.374 44.1963 L 119.374 48.7113 L 124.804 48.7113 L 124.804 44.1963 L 126.244 44.1963 L 126.244 54.8163 L 124.804 54.8163 L 124.804 49.9113 L 119.374 49.9113 L 119.374 54.8163 L 117.934 54.8163 L 117.934 44.1963 " fill="#000000"/>
<path class="atom-2" d="M 45.7562 46.0637 L 47.1962 46.0637 L 47.1962 50.5787 L 52.6262 50.5787 L 52.6262 46.0637 L 54.0662 46.0637 L 54.0662 56.6838 L 52.6262 56.6838 L 52.6262 51.7788 L 47.1962 51.7788 L 47.1962 56.6838 L 45.7562 56.6838 L 45.7562 46.0637 " fill="#000000"/>
</g>
  <g id="id1:id4:id1:id1" transform="translate(0.0,125.0)">
    <text fill="black" font-family="Arial" font-size="15px" x="20" y="20">SMILES: [H]O[H]</text>
    <text fill="black" font-family="Arial" font-size="15px" x="20" y="40">126 occurences (1.6%)</text>
    <text fill="black" font-family="Arial" font-size="15px" x="20" y="60">Average impact on prediction: 0.637</text>
  </g>
</g>
</g>
  <g id="id2:id2" transform="translate(0,292.0)">
    <text fill="black" font-family="Arial" font-size="15px" x="20" y="20" font-weight="Bold">NEGATIVE</text>
  </g>
  <g id="id3:id3" transform="translate(0.0,352.0)"><g id="id3:id0:id0" transform="translate(0,31.0)"><g id="id3:id0:id0:id0" transform="matrix(1.0,0,0,1.0,63.70484999999999,0.0)"><!-- END OF HEADER -->
<rect style="opacity:1.0;fill:#FFFFFF;stroke:none" width="155" height="121" x="0" y="0"> </rect>
<path class="bond-0" d="M 99.577,68.167 L 98.4057,69.6311" style="fill:none;fill-rule:evenodd;stroke:#000000;stroke-width:1.0px;stroke-linecap:butt;stroke-linejoin:miter;stroke-opacity:1"/>
<path class="bond-0" d="M 95.029,63.328 L 92.6864,66.2563" style="fill:none;fill-rule:evenodd;stroke:#000000;stroke-width:1.0px;stroke-linecap:butt;stroke-linejoin:miter;stroke-opacity:1"/>
<path class="bond-0" d="M 90.481,58.4891 L 86.9671,62.8814" style="fill:none;fill-rule:evenodd;stroke:#FF0000;stroke-width:1.0px;stroke-linecap:butt;stroke-linejoin:miter;stroke-opacity:1"/>
<path class="bond-0" d="M 85.933,53.6501 L 81.2478,59.5066" style="fill:none;fill-rule:evenodd;stroke:#FF0000;stroke-width:1.0px;stroke-linecap:butt;stroke-linejoin:miter;stroke-opacity:1"/>
<path class="bond-1" d="M 49.875,73.006 L 62.125,66.1623 L 59.875,63.1622 Z" style="fill:#000000;fill-rule:evenodd;fill-opacity:1;stroke:#000000;stroke-width:2px;stroke-linecap:butt;stroke-linejoin:miter;stroke-opacity:1;"/>
<path class="bond-1" d="M 62.125,66.1623 L 69.875,53.3185 L 74.375,59.3185 Z" style="fill:#FF0000;fill-rule:evenodd;fill-opacity:1;stroke:#FF0000;stroke-width:2px;stroke-linecap:butt;stroke-linejoin:miter;stroke-opacity:1;"/>
<path class="bond-1" d="M 62.125,66.1623 L 59.875,63.1622 L 69.875,53.3185 Z" style="fill:#FF0000;fill-rule:evenodd;fill-opacity:1;stroke:#FF0000;stroke-width:2px;stroke-linecap:butt;stroke-linejoin:miter;stroke-opacity:1;"/>
<path class="atom-1" d="M 73 52.036 Q 73 49.486, 74.26 48.061 Q 75.52 46.636, 77.875 46.636 Q 80.23 46.636, 81.49 48.061 Q 82.75 49.486, 82.75 52.036 Q 82.75 54.616, 81.475 56.086 Q 80.2 57.541, 77.875 57.541 Q 75.535 57.541, 74.26 56.086 Q 73 54.631, 73 52.036 M 77.875 56.341 Q 79.495 56.341, 80.365 55.261 Q 81.25 54.166, 81.25 52.036 Q 81.25 49.951, 80.365 48.901 Q 79.495 47.836, 77.875 47.836 Q 76.255 47.836, 75.37 48.886 Q 74.5 49.936, 74.5 52.036 Q 74.5 54.181, 75.37 55.261 Q 76.255 56.341, 77.875 56.341 " fill="#FF0000"/>
</g>
  <g id="id3:id0:id1:id1" transform="translate(0.0,121.0)">
    <text fill="black" font-family="Arial" font-size="15px" x="20" y="20">SMILES: COC</text>
    <text fill="black" font-family="Arial" font-size="15px" x="20" y="40">1949 occurences (24.63%)</text>
    <text fill="black" font-family="Arial" font-size="15px" x="20" y="60">Average impact on prediction: -0.261</text>
  </g>
</g>
  <g id="id3:id1:id1" transform="translate(282.4097,0.0)"><g id="id3:id1:id0:id0" transform="matrix(1.0,0,0,1.0,63.25219999999999,0.0)"><!-- END OF HEADER -->
<rect style="opacity:1.0;fill:#FFFFFF;stroke:none" width="158" height="183" x="0" y="0"> </rect>
<path class="bond-0" d="M 68.0487,134.78 L 80.4119,104.284 L 73.1856,102.276 Z" style="fill:#000000;fill-rule:evenodd;fill-opacity:1;stroke:#000000;stroke-width:2px;stroke-linecap:butt;stroke-linejoin:miter;stroke-opacity:1;"/>
<path class="bond-1" d="M 76.7987,103.28 L 66.5315,95.0662" style="fill:none;fill-rule:evenodd;stroke:#000000;stroke-width:2.0px;stroke-linecap:butt;stroke-linejoin:miter;stroke-opacity:1"/>
<path class="bond-1" d="M 66.5315,95.0662 L 56.2642,86.8523" style="fill:none;fill-rule:evenodd;stroke:#FF0000;stroke-width:2.0px;stroke-linecap:butt;stroke-linejoin:miter;stroke-opacity:1"/>
<path class="bond-2" d="M 76.7987,103.28 L 92.0305,82.2954 L 88.8443,80.3178 Z" style="fill:#000000;fill-rule:evenodd;fill-opacity:1;stroke:#000000;stroke-width:2px;stroke-linecap:butt;stroke-linejoin:miter;stroke-opacity:1;"/>
<path class="bond-2" d="M 92.0305,82.2954 L 100.89,57.3557 L 107.262,61.3109 Z" style="fill:#0000FF;fill-rule:evenodd;fill-opacity:1;stroke:#0000FF;stroke-width:2px;stroke-linecap:butt;stroke-linejoin:miter;stroke-opacity:1;"/>
<path class="bond-2" d="M 92.0305,82.2954 L 88.8443,80.3178 L 100.89,57.3557 Z" style="fill:#0000FF;fill-rule:evenodd;fill-opacity:1;stroke:#0000FF;stroke-width:2px;stroke-linecap:butt;stroke-linejoin:miter;stroke-opacity:1;"/>
<path class="atom-2" d="M 45.6737 82.31 Q 45.6737 79.76, 46.9337 78.335 Q 48.1937 76.91, 50.5487 76.91 Q 52.9037 76.91, 54.1637 78.335 Q 55.4237 79.76, 55.4237 82.31 Q 55.4237 84.89, 54.1487 86.36 Q 52.8737 87.815, 50.5487 87.815 Q 48.2087 87.815, 46.9337 86.36 Q 45.6737 84.905, 45.6737 82.31 M 50.5487 86.615 Q 52.1687 86.615, 53.0387 85.535 Q 53.9237 84.44, 53.9237 82.31 Q 53.9237 80.225, 53.0387 79.175 Q 52.1687 78.11, 50.5487 78.11 Q 48.9287 78.11, 48.0437 79.16 Q 47.1737 80.21, 47.1737 82.31 Q 47.1737 84.455, 48.0437 85.535 Q 48.9287 86.615, 50.5487 86.615 " fill="#FF0000"/>
<path class="atom-3" d="M 105.951 47.22 L 109.431 52.845 Q 109.776 53.4, 110.331 54.405 Q 110.886 55.41, 110.916 55.47 L 110.916 47.22 L 112.326 47.22 L 112.326 57.84 L 110.871 57.84 L 107.136 51.69 Q 106.701 50.97, 106.236 50.145 Q 105.786 49.32, 105.651 49.065 L 105.651 57.84 L 104.271 57.84 L 104.271 47.22 L 105.951 47.22 " fill="#0000FF"/>
</g>
  <g id="id3:id1:id1:id1" transform="translate(0.0,183.0)">
    <text fill="black" font-family="Arial" font-size="15px" x="20" y="20">SMILES: C[C@H](n)O</text>
    <text fill="black" font-family="Arial" font-size="15px" x="20" y="40">978 occurences (12.36%)</text>
    <text fill="black" font-family="Arial" font-size="15px" x="20" y="60">Average impact on prediction: -0.208</text>
  </g>
</g>
  <g id="id3:id2:id2" transform="translate(566.9141,24.5)"><g id="id3:id2:id0:id0" transform="matrix(1.0,0,0,1.0,92.23755,0.0)"><!-- END OF HEADER -->
<rect style="opacity:1.0;fill:#FFFFFF;stroke:none" width="100" height="134" x="0" y="0"> </rect>
<path class="bond-0" d="M 50,56.4038 L 50,66.9343" style="fill:none;fill-rule:evenodd;stroke:#FF7F00;stroke-width:2.0px;stroke-linecap:butt;stroke-linejoin:miter;stroke-opacity:1"/>
<path class="bond-0" d="M 50,66.9343 L 50,77.4648" style="fill:none;fill-rule:evenodd;stroke:#FF0000;stroke-width:2.0px;stroke-linecap:butt;stroke-linejoin:miter;stroke-opacity:1"/>
<path class="atom-0" d="M 49.745 44.9525 Q 51.56 44.9525, 52.475 45.7775 Q 53.39 46.5875, 53.39 48.0725 Q 53.39 49.5425, 52.445 50.3825 Q 51.515 51.2075, 49.745 51.2075 L 48.05 51.2075 L 48.05 55.5725 L 46.61 55.5725 L 46.61 44.9525 L 49.745 44.9525 M 49.745 50.0075 Q 50.78 50.0075, 51.335 49.5125 Q 51.89 49.0175, 51.89 48.0725 Q 51.89 47.1275, 51.335 46.6475 Q 50.795 46.1525, 49.745 46.1525 L 48.05 46.1525 L 48.05 50.0075 L 49.745 50.0075 " fill="#FF7F00"/>
<path class="atom-1" d="M 45.125 83.5425 Q 45.125 80.9925, 46.385 79.5675 Q 47.645 78.1425, 50 78.1425 Q 52.355 78.1425, 53.615 79.5675 Q 54.875 80.9925, 54.875 83.5425 Q 54.875 86.1225, 53.6 87.5925 Q 52.325 89.0475, 50 89.0475 Q 47.66 89.0475, 46.385 87.5925 Q 45.125 86.1375, 45.125 83.5425 M 50 87.8475 Q 51.62 87.8475, 52.49 86.7675 Q 53.375 85.6725, 53.375 83.5425 Q 53.375 81.4575, 52.49 80.4075 Q 51.62 79.3425, 50 79.3425 Q 48.38 79.3425, 47.495 80.3925 Q 46.625 81.4425, 46.625 83.5425 Q 46.625 85.6875, 47.495 86.7675 Q 48.38 87.8475, 50 87.8475 " fill="#FF0000"/>
<path class="atom-1" d="M 56.15 78.2625 L 57.59 78.2625 L 57.59 82.7775 L 63.02 82.7775 L 63.02 78.2625 L 64.46 78.2625 L 64.46 88.8825 L 63.02 88.8825 L 63.02 83.9775 L 57.59 83.9775 L 57.59 88.8825 L 56.15 88.8825 L 56.15 78.2625 " fill="#FF0000"/>
</g>
  <g id="id3:id2:id1:id1" transform="translate(0.0,134.0)">
    <text fill="black" font-family="Arial" font-size="15px" x="20" y="20">SMILES: OP</text>
    <text fill="black" font-family="Arial" font-size="15px" x="20" y="40">742 occurences (9.38%)</text>
    <text fill="black" font-family="Arial" font-size="15px" x="20" y="60">Average impact on prediction: -0.186</text>
  </g>
</g>
  <g id="id3:id3:id3" transform="translate(851.3892,32.5)"><g id="id3:id3:id0:id0" transform="matrix(1.0,0,0,1.0,76.73755,0.0)"><!-- END OF HEADER -->
<rect style="opacity:1.0;fill:#FFFFFF;stroke:none" width="131" height="118" x="0" y="0"> </rect>
<path class="bond-0" d="M 43.4672,47.91 L 55.7899,54.9359" style="fill:none;fill-rule:evenodd;stroke:#000000;stroke-width:2.0px;stroke-linecap:butt;stroke-linejoin:miter;stroke-opacity:1"/>
<path class="bond-0" d="M 55.7899,54.9359 L 68.1125,61.9617" style="fill:none;fill-rule:evenodd;stroke:#FF0000;stroke-width:2.0px;stroke-linecap:butt;stroke-linejoin:miter;stroke-opacity:1"/>
<path class="atom-1" d="M 68.9872 65.27 Q 68.9872 62.72, 70.2472 61.295 Q 71.5072 59.87, 73.8622 59.87 Q 76.2172 59.87, 77.4772 61.295 Q 78.7372 62.72, 78.7372 65.27 Q 78.7372 67.85, 77.4622 69.32 Q 76.1872 70.775, 73.8622 70.775 Q 71.5222 70.775, 70.2472 69.32 Q 68.9872 67.865, 68.9872 65.27 M 73.8622 69.575 Q 75.4822 69.575, 76.3522 68.495 Q 77.2372 67.4, 77.2372 65.27 Q 77.2372 63.185, 76.3522 62.135 Q 75.4822 61.07, 73.8622 61.07 Q 72.2422 61.07, 71.3572 62.12 Q 70.4872 63.17, 70.4872 65.27 Q 70.4872 67.415, 71.3572 68.495 Q 72.2422 69.575, 73.8622 69.575 " fill="#FF0000"/>
<path class="atom-1" d="M 80.0122 59.99 L 81.4522 59.99 L 81.4522 64.505 L 86.8822 64.505 L 86.8822 59.99 L 88.3222 59.99 L 88.3222 70.61 L 86.8822 70.61 L 86.8822 65.705 L 81.4522 65.705 L 81.4522 70.61 L 80.0122 70.61 L 80.0122 59.99 " fill="#FF0000"/>
</g>
  <g id="id3:id3:id1:id1" transform="translate(0.0,118.0)">
    <text fill="black" font-family="Arial" font-size="15px" x="20" y="20">SMILES: CO</text>
    <text fill="black" font-family="Arial" font-size="15px" x="20" y="40">646 occurences (8.16%)</text>
    <text fill="black" font-family="Arial" font-size="15px" x="20" y="60">Average impact on prediction: -0.516</text>
  </g>
</g>
  <g id="id3:id4:id4" transform="translate(1135.8643,29.0)"><g id="id3:id4:id0:id0" transform="matrix(1.0,0,0,1.0,54.70484999999999,0.0)"><!-- END OF HEADER -->
<rect style="opacity:1.0;fill:#FFFFFF;stroke:none" width="173" height="125" x="0" y="0"> </rect>
<path class="bond-0" d="M 91.1992,70.2494 L 104.101,61.5852" style="fill:none;fill-rule:evenodd;stroke:#FF0000;stroke-width:2.0px;stroke-linecap:butt;stroke-linejoin:miter;stroke-opacity:1"/>
<path class="bond-0" d="M 104.101,61.5852 L 117.004,52.9211" style="fill:none;fill-rule:evenodd;stroke:#000000;stroke-width:2.0px;stroke-linecap:butt;stroke-linejoin:miter;stroke-opacity:1"/>
<path class="bond-1" d="M 79.2868,70.4249 L 67.1142,62.5305" style="fill:none;fill-rule:evenodd;stroke:#FF0000;stroke-width:2.0px;stroke-linecap:butt;stroke-linejoin:miter;stroke-opacity:1"/>
<path class="bond-1" d="M 67.1142,62.5305 L 54.9416,54.6361" style="fill:none;fill-rule:evenodd;stroke:#000000;stroke-width:2.0px;stroke-linecap:butt;stroke-linejoin:miter;stroke-opacity:1"/>
<path class="atom-0" d="M 80.3387 74.2987 Q 80.3387 71.7487, 81.5987 70.3237 Q 82.8587 68.8987, 85.2137 68.8987 Q 87.5687 68.8987, 88.8287 70.3237 Q 90.0887 71.7487, 90.0887 74.2987 Q 90.0887 76.8787, 88.8137 78.3487 Q 87.5387 79.8037, 85.2137 79.8037 Q 82.8737 79.8037, 81.5987 78.3487 Q 80.3387 76.8937, 80.3387 74.2987 M 85.2137 78.6037 Q 86.8337 78.6037, 87.7037 77.5237 Q 88.5887 76.4287, 88.5887 74.2987 Q 88.5887 72.2137, 87.7037 71.1637 Q 86.8337 70.0987, 85.2137 70.0987 Q 83.5937 70.0987, 82.7087 71.1487 Q 81.8387 72.1987, 81.8387 74.2987 Q 81.8387 76.4437, 82.7087 77.5237 Q 83.5937 78.6037, 85.2137 78.6037 " fill="#FF0000"/>
<path class="atom-1" d="M 117.934 44.1963 L 119.374 44.1963 L 119.374 48.7113 L 124.804 48.7113 L 124.804 44.1963 L 126.244 44.1963 L 126.244 54.8163 L 124.804 54.8163 L 124.804 49.9113 L 119.374 49.9113 L 119.374 54.8163 L 117.934 54.8163 L 117.934 44.1963 " fill="#000000"/>
<path class="atom-2" d="M 45.7562 46.0637 L 47.1962 46.0637 L 47.1962 50.5787 L 52.6262 50.5787 L 52.6262 46.0637 L 54.0662 46.0637 L 54.0662 56.6838 L 52.6262 56.6838 L 52.6262 51.7788 L 47.1962 51.7788 L 47.1962 56.6838 L 45.7562 56.6838 L 45.7562 46.0637 " fill="#000000"/>
</g>
  <g id="id3:id4:id1:id1" transform="translate(0.0,125.0)">
    <text fill="black" font-family="Arial" font-size="15px" x="20" y="20">SMILES: [H]O[H]</text>
    <text fill="black" font-family="Arial" font-size="15px" x="20" y="40">604 occurences (7.63%)</text>
    <text fill="black" font-family="Arial" font-size="15px" x="20" y="60">Average impact on prediction: -0.821</text>
  </g>
</g>
</g>
</svg>
