<?xml version="1.0" standalone="no"?>
<!DOCTYPE svg PUBLIC "-//W3C//DTD SVG 1.1//EN"
 "http://www.w3.org/Graphics/SVG/1.1/DTD/svg11.dtd">
<!-- Created with svg_stack (http://github.com/astraw/svg_stack) -->
<svg xmlns="http://www.w3.org/2000/svg" xmlns:sodipodi="http://sodipodi.sourceforge.net/DTD/sodipodi-0.dtd" xmlns:ev="http://www.w3.org/2001/xml-events" xmlns:xlink="http://www.w3.org/1999/xlink" xmlns:rdkit="http://www.rdkit.org/xml" version="1.1" width="1414.0331999999999" height="585.0">
  <defs/>
  <g id="id0:id0" transform="translate(0,0)">
    <text fill="black" font-family="Arial" font-size="15px" x="20" y="20" font-weight="Bold">POSITIVE</text>
  </g>
  <g id="id1:id1" transform="translate(13.498499999999922,60.0)"><g id="id1:id0:id0" transform="translate(0,8.5)"><g id="id1:id0:id0:id0" transform="matrix(1.0,0,0,1.0,73.74000000000001,0.0)"><!-- END OF HEADER -->
<rect style="opacity:1.0;fill:#FFFFFF;stroke:none" width="132" height="118" x="0" y="0"> </rect>
<path class="bond-0" d="M 87.9102,70.1239 L 75.0482,62.9783" style="fill:none;fill-rule:evenodd;stroke:#000000;stroke-width:2.0px;stroke-linecap:butt;stroke-linejoin:miter;stroke-opacity:1"/>
<path class="bond-0" d="M 75.0482,62.9783 L 62.1861,55.8327" style="fill:none;fill-rule:evenodd;stroke:#FF0000;stroke-width:2.0px;stroke-linecap:butt;stroke-linejoin:miter;stroke-opacity:1"/>
<path class="atom-1" d="M 42.4752 47.3739 L 43.9152 47.3739 L 43.9152 51.8889 L 49.3452 51.8889 L 49.3452 47.3739 L 50.7852 47.3739 L 50.7852 57.9939 L 49.3452 57.9939 L 49.3452 53.0889 L 43.9152 53.0889 L 43.9152 57.9939 L 42.4752 57.9939 L 42.4752 47.3739 " fill="#FF0000"/>
<path class="atom-1" d="M 51.5352 52.6539 Q 51.5352 50.1039, 52.7952 48.6789 Q 54.0552 47.2539, 56.4102 47.2539 Q 58.7652 47.2539, 60.0252 48.6789 Q 61.2852 50.1039, 61.2852 52.6539 Q 61.2852 55.2339, 60.0102 56.7039 Q 58.7352 58.1589, 56.4102 58.1589 Q 54.0702 58.1589, 52.7952 56.7039 Q 51.5352 55.2489, 51.5352 52.6539 M 56.4102 56.9589 Q 58.0302 56.9589, 58.9002 55.8789 Q 59.7852 54.7839, 59.7852 52.6539 Q 59.7852 50.5689, 58.9002 49.5189 Q 58.0302 48.4539, 56.4102 48.4539 Q 54.7902 48.4539, 53.9052 49.5039 Q 53.0352 50.5539, 53.0352 52.6539 Q 53.0352 54.7989, 53.9052 55.8789 Q 54.7902 56.9589, 56.4102 56.9589 " fill="#FF0000"/>
</g>
  <g id="id1:id0:id1:id1" transform="translate(0.0,118.0)">
    <text fill="black" font-family="Arial" font-size="15px" x="20" y="20">SMILES: cO</text>
    <text fill="black" font-family="Arial" font-size="15px" x="20" y="40">2162 occurences (26.93%)</text>
    <text fill="black" font-family="Arial" font-size="15px" x="20" y="60">Average impact on prediction: 0.236</text>
  </g>
</g>
  <g id="id1:id1:id1" transform="translate(279.48,0.0)"><g id="id1:id1:id0:id0" transform="matrix(1.0,0,0,1.0,88.7073,0.0)"><!-- END OF HEADER -->
<rect style="opacity:1.0;fill:#FFFFFF;stroke:none" width="100" height="135" x="0" y="0"> </rect>
<path class="bond-0" d="M 46.25,46.7363 L 46.25,61.1101" style="fill:none;fill-rule:evenodd;stroke:#000000;stroke-width:2.0px;stroke-linecap:butt;stroke-linejoin:miter;stroke-opacity:1"/>
<path class="bond-0" d="M 46.25,61.1101 L 46.25,75.4839" style="fill:none;fill-rule:evenodd;stroke:#FF0000;stroke-width:2.0px;stroke-linecap:butt;stroke-linejoin:miter;stroke-opacity:1"/>
<path class="bond-0" d="M 53.75,46.7363 L 53.75,61.1101" style="fill:none;fill-rule:evenodd;stroke:#000000;stroke-width:2.0px;stroke-linecap:butt;stroke-linejoin:miter;stroke-opacity:1"/>
<path class="bond-0" d="M 53.75,61.1101 L 53.75,75.4839" style="fill:none;fill-rule:evenodd;stroke:#FF0000;stroke-width:2.0px;stroke-linecap:butt;stroke-linejoin:miter;stroke-opacity:1"/>
<path class="atom-1" d="M 45.125 81.7587 Q 45.125 79.2087, 46.385 77.7837 Q 47.645 76.3588, 50 76.3588 Q 52.355 76.3588, 53.615 77.7837 Q 54.875 79.2087, 54.875 81.7587 Q 54.875 84.3387, 53.6 85.8087 Q 52.325 87.2638, 50 87.2638 Q 47.66 87.2638, 46.385 85.8087 Q 45.125 84.3537, 45.125 81.7587 M 50 86.0637 Q 51.62 86.0637, 52.49 84.9838 Q 53.375 83.8888, 53.375 81.7587 Q 53.375 79.6737, 52.49 78.6238 Q 51.62 77.5587, 50 77.5587 Q 48.38 77.5587, 47.495 78.6088 Q 46.625 79.6587, 46.625 81.7587 Q 46.625 83.9038, 47.495 84.9838 Q 48.38 86.0637, 50 86.0637 " fill="#FF0000"/>
</g>
  <g id="id1:id1:id1:id1" transform="translate(0.0,135.0)">
    <text fill="black" font-family="Arial" font-size="15px" x="20" y="20">SMILES: C=O</text>
    <text fill="black" font-family="Arial" font-size="15px" x="20" y="40">1500 occurences (18.68%)</text>
    <text fill="black" font-family="Arial" font-size="15px" x="20" y="60">Average impact on prediction: 0.111</text>
  </g>
</g>
  <g id="id1:id2:id2" transform="translate(556.8946000000001,0.0)"><g id="id1:id2:id0:id0" transform="matrix(1.0,0,0,1.0,85.57249999999999,0.0)"><!-- END OF HEADER -->
<rect style="opacity:1.0;fill:#FFFFFF;stroke:none" width="100" height="135" x="0" y="0"> </rect>
<path class="bond-0" d="M 50,78.1407 L 50,67.0653" style="fill:none;fill-rule:evenodd;stroke:#FF7F00;stroke-width:2.0px;stroke-linecap:butt;stroke-linejoin:miter;stroke-opacity:1"/>
<path class="bond-0" d="M 50,67.0653 L 50,55.9899" style="fill:none;fill-rule:evenodd;stroke:#FF0000;stroke-width:2.0px;stroke-linecap:butt;stroke-linejoin:miter;stroke-opacity:1"/>
<path class="atom-0" d="M 49.745 79.005 Q 51.56 79.005, 52.475 79.83 Q 53.39 80.64, 53.39 82.125 Q 53.39 83.595, 52.445 84.435 Q 51.515 85.26, 49.745 85.26 L 48.05 85.26 L 48.05 89.625 L 46.61 89.625 L 46.61 79.005 L 49.745 79.005 M 49.745 84.06 Q 50.78 84.06, 51.335 83.565 Q 51.89 83.07, 51.89 82.125 Q 51.89 81.18, 51.335 80.7 Q 50.795 80.205, 49.745 80.205 L 48.05 80.205 L 48.05 84.06 L 49.745 84.06 " fill="#FF7F00"/>
<path class="atom-1" d="M 45.125 49.775 Q 45.125 47.225, 46.385 45.8 Q 47.645 44.375, 50 44.375 Q 52.355 44.375, 53.615 45.8 Q 54.875 47.225, 54.875 49.775 Q 54.875 52.355, 53.6 53.825 Q 52.325 55.28, 50 55.28 Q 47.66 55.28, 46.385 53.825 Q 45.125 52.37, 45.125 49.775 M 50 54.08 Q 51.62 54.08, 52.49 53 Q 53.375 51.905, 53.375 49.775 Q 53.375 47.69, 52.49 46.64 Q 51.62 45.575, 50 45.575 Q 48.38 45.575, 47.495 46.625 Q 46.625 47.675, 46.625 49.775 Q 46.625 51.92, 47.495 53 Q 48.38 54.08, 50 54.08 " fill="#FF0000"/>
<path class="atom-1" d="M 56.15 44.495 L 57.59 44.495 L 57.59 49.01 L 63.02 49.01 L 63.02 44.495 L 64.46 44.495 L 64.46 55.115 L 63.02 55.115 L 63.02 50.21 L 57.59 50.21 L 57.59 55.115 L 56.15 55.115 L 56.15 44.495 " fill="#FF0000"/>
</g>
  <g id="id1:id2:id1:id1" transform="translate(0.0,135.0)">
    <text fill="black" font-family="Arial" font-size="15px" x="20" y="20">SMILES: OP</text>
    <text fill="black" font-family="Arial" font-size="15px" x="20" y="40">745 occurences (9.28%)</text>
    <text fill="black" font-family="Arial" font-size="15px" x="20" y="60">Average impact on prediction: 0.17</text>
  </g>
</g>
  <g id="id1:id3:id3" transform="translate(828.0396000000001,8.5)"><g id="id1:id3:id0:id0" transform="matrix(1.0,0,0,1.0,58.75465,0.0)"><!-- END OF HEADER -->
<rect style="opacity:1.0;fill:#FFFFFF;stroke:none" width="162" height="118" x="0" y="0"> </rect>
<path class="bond-0" d="M 111.625,70.435 L 98.7629,63.2894" style="fill:none;fill-rule:evenodd;stroke:#000000;stroke-width:2.0px;stroke-linecap:butt;stroke-linejoin:miter;stroke-opacity:1"/>
<path class="bond-0" d="M 98.7629,63.2894 L 85.9009,56.1438" style="fill:none;fill-rule:evenodd;stroke:#FF0000;stroke-width:2.0px;stroke-linecap:butt;stroke-linejoin:miter;stroke-opacity:1"/>
<path class="bond-1" d="M 74.3871,56.3102 L 62.3811,63.3726" style="fill:none;fill-rule:evenodd;stroke:#FF0000;stroke-width:2.0px;stroke-linecap:butt;stroke-linejoin:miter;stroke-opacity:1"/>
<path class="bond-1" d="M 62.3811,63.3726 L 50.375,70.435" style="fill:none;fill-rule:evenodd;stroke:#000000;stroke-width:2.0px;stroke-linecap:butt;stroke-linejoin:miter;stroke-opacity:1"/>
<path class="atom-1" d="M 75.25 52.965 Q 75.25 50.415, 76.51 48.99 Q 77.77 47.565, 80.125 47.565 Q 82.48 47.565, 83.74 48.99 Q 85 50.415, 85 52.965 Q 85 55.545, 83.725 57.015 Q 82.45 58.47, 80.125 58.47 Q 77.785 58.47, 76.51 57.015 Q 75.25 55.56, 75.25 52.965 M 80.125 57.27 Q 81.745 57.27, 82.615 56.19 Q 83.5 55.095, 83.5 52.965 Q 83.5 50.88, 82.615 49.83 Q 81.745 48.765, 80.125 48.765 Q 78.505 48.765, 77.62 49.815 Q 76.75 50.865, 76.75 52.965 Q 76.75 55.11, 77.62 56.19 Q 78.505 57.27, 80.125 57.27 " fill="#FF0000"/>
</g>
  <g id="id1:id3:id1:id1" transform="translate(0.0,118.0)">
    <text fill="black" font-family="Arial" font-size="15px" x="20" y="20">SMILES: cOC</text>
    <text fill="black" font-family="Arial" font-size="15px" x="20" y="40">698 occurences (8.69%)</text>
    <text fill="black" font-family="Arial" font-size="15px" x="20" y="60">Average impact on prediction: 0.208</text>
  </g>
</g>
  <g id="id1:id4:id4" transform="translate(1107.5489,8.5)"><g id="id1:id4:id0:id0" transform="matrix(1.0,0,0,1.0,74.24365,0.0)"><!-- END OF HEADER -->
<rect style="opacity:1.0;fill:#FFFFFF;stroke:none" width="131" height="118" x="0" y="0"> </rect>
<path class="bond-0" d="M 40.3888,44.9675 L 53.1333,52.2827" style="fill:none;fill-rule:evenodd;stroke:#000000;stroke-width:2.0px;stroke-linecap:butt;stroke-linejoin:miter;stroke-opacity:1"/>
<path class="bond-0" d="M 53.1333,52.2827 L 65.8778,59.5979" style="fill:none;fill-rule:evenodd;stroke:#0000FF;stroke-width:2.0px;stroke-linecap:butt;stroke-linejoin:miter;stroke-opacity:1"/>
<path class="atom-1" d="M 68.4339 57.1025 L 71.9139 62.7275 Q 72.2589 63.2825, 72.8139 64.2875 Q 73.3689 65.2925, 73.3989 65.3525 L 73.3989 57.1025 L 74.8089 57.1025 L 74.8089 67.7225 L 73.3539 67.7225 L 69.6189 61.5725 Q 69.1839 60.8525, 68.7189 60.0275 Q 68.2689 59.2025, 68.1339 58.9475 L 68.1339 67.7225 L 66.7539 67.7225 L 66.7539 57.1025 L 68.4339 57.1025 " fill="#0000FF"/>
<path class="atom-1" d="M 76.0839 57.1025 L 77.5239 57.1025 L 77.5239 61.6175 L 82.9539 61.6175 L 82.9539 57.1025 L 84.3939 57.1025 L 84.3939 67.7225 L 82.9539 67.7225 L 82.9539 62.8175 L 77.5239 62.8175 L 77.5239 67.7225 L 76.0839 67.7225 L 76.0839 57.1025 " fill="#0000FF"/>
<path class="atom-1" d="M 84.9087 67.3499 Q 85.1661 66.6866, 85.7799 66.3203 Q 86.3937 65.9441, 87.2451 65.9441 Q 88.3044 65.9441, 88.8984 66.5183 Q 89.4924 67.0925, 89.4924 68.1122 Q 89.4924 69.1517, 88.7202 70.1219 Q 87.9579 71.0921, 86.3739 72.2405 L 89.6112 72.2405 L 89.6112 73.0325 L 84.8889 73.0325 L 84.8889 72.3692 Q 86.1957 71.4386, 86.9679 70.7456 Q 87.75 70.0526, 88.1262 69.4289 Q 88.5024 68.8052, 88.5024 68.1617 Q 88.5024 67.4885, 88.1658 67.1123 Q 87.8292 66.7361, 87.2451 66.7361 Q 86.6808 66.7361, 86.3046 66.9638 Q 85.9284 67.1915, 85.6611 67.6964 L 84.9087 67.3499 " fill="#0000FF"/>
</g>
  <g id="id1:id4:id1:id1" transform="translate(0.0,118.0)">
    <text fill="black" font-family="Arial" font-size="15px" x="20" y="20">SMILES: CN</text>
    <text fill="black" font-family="Arial" font-size="15px" x="20" y="40">603 occurences (7.51%)</text>
    <text fill="black" font-family="Arial" font-size="15px" x="20" y="60">Average impact on prediction: 0.413</text>
  </g>
</g>
</g>
  <g id="id2:id2" transform="translate(0,275.0)">
    <text fill="black" font-family="Arial" font-size="15px" x="20" y="20" font-weight="Bold">NEGATIVE</text>
  </g>
  <g id="id3:id3" transform="translate(0.0,335.0)"><g id="id3:id0:id0" transform="translate(0,8.5)"><g id="id3:id0:id0:id0" transform="matrix(1.0,0,0,1.0,61.75219999999999,0.0)"><!-- END OF HEADER -->
<rect style="opacity:1.0;fill:#FFFFFF;stroke:none" width="161" height="153" x="0" y="0"> </rect>
<path class="bond-0" d="M 78.3738,73.6362 L 92.7473,71.0087 L 91.6051,67.4368 Z" style="fill:#000000;fill-rule:evenodd;fill-opacity:1;stroke:#000000;stroke-width:2px;stroke-linecap:butt;stroke-linejoin:miter;stroke-opacity:1;"/>
<path class="bond-0" d="M 92.7473,71.0087 L 104.836,61.2374 L 107.121,68.3811 Z" style="fill:#0000FF;fill-rule:evenodd;fill-opacity:1;stroke:#0000FF;stroke-width:2px;stroke-linecap:butt;stroke-linejoin:miter;stroke-opacity:1;"/>
<path class="bond-0" d="M 92.7473,71.0087 L 91.6051,67.4368 L 104.836,61.2374 Z" style="fill:#0000FF;fill-rule:evenodd;fill-opacity:1;stroke:#0000FF;stroke-width:2px;stroke-linecap:butt;stroke-linejoin:miter;stroke-opacity:1;"/>
<path class="bond-1" d="M 78.3738,73.6362 L 67.0617,65.1816" style="fill:none;fill-rule:evenodd;stroke:#000000;stroke-width:2.0px;stroke-linecap:butt;stroke-linejoin:miter;stroke-opacity:1"/>
<path class="bond-1" d="M 67.0617,65.1816 L 55.7497,56.727" style="fill:none;fill-rule:evenodd;stroke:#FF0000;stroke-width:2.0px;stroke-linecap:butt;stroke-linejoin:miter;stroke-opacity:1"/>
<path class="bond-2" d="M 70.5416,98.9283 L 69.1219,98.4442" style="fill:none;fill-rule:evenodd;stroke:#000000;stroke-width:1.0px;stroke-linecap:butt;stroke-linejoin:miter;stroke-opacity:1"/>
<path class="bond-2" d="M 73.387,92.9079 L 70.5475,91.9396" style="fill:none;fill-rule:evenodd;stroke:#000000;stroke-width:1.0px;stroke-linecap:butt;stroke-linejoin:miter;stroke-opacity:1"/>
<path class="bond-2" d="M 76.2323,86.8874 L 71.9732,85.4351" style="fill:none;fill-rule:evenodd;stroke:#000000;stroke-width:1.0px;stroke-linecap:butt;stroke-linejoin:miter;stroke-opacity:1"/>
<path class="bond-2" d="M 79.0777,80.867 L 73.3988,78.9305" style="fill:none;fill-rule:evenodd;stroke:#000000;stroke-width:1.0px;stroke-linecap:butt;stroke-linejoin:miter;stroke-opacity:1"/>
<path class="bond-2" d="M 81.9231,74.8466 L 74.8244,72.4259" style="fill:none;fill-rule:evenodd;stroke:#000000;stroke-width:1.0px;stroke-linecap:butt;stroke-linejoin:miter;stroke-opacity:1"/>
<path class="atom-1" d="M 108.511 57.9387 L 111.991 63.5638 Q 112.336 64.1188, 112.891 65.1238 Q 113.446 66.1287, 113.476 66.1887 L 113.476 57.9387 L 114.886 57.9387 L 114.886 68.5588 L 113.431 68.5588 L 109.696 62.4088 Q 109.261 61.6888, 108.796 60.8638 Q 108.346 60.0388, 108.211 59.7838 L 108.211 68.5588 L 106.831 68.5588 L 106.831 57.9387 L 108.511 57.9387 " fill="#0000FF"/>
<path class="atom-2" d="M 45.1138 52.4513 Q 45.1138 49.9013, 46.3738 48.4763 Q 47.6338 47.0513, 49.9888 47.0513 Q 52.3438 47.0513, 53.6038 48.4763 Q 54.8638 49.9013, 54.8638 52.4513 Q 54.8638 55.0313, 53.5888 56.5013 Q 52.3138 57.9563, 49.9888 57.9563 Q 47.6488 57.9563, 46.3738 56.5013 Q 45.1138 55.0463, 45.1138 52.4513 M 49.9888 56.7563 Q 51.6088 56.7563, 52.4788 55.6763 Q 53.3638 54.5813, 53.3638 52.4513 Q 53.3638 50.3663, 52.4788 49.3163 Q 51.6088 48.2513, 49.9888 48.2513 Q 48.3688 48.2513, 47.4838 49.3013 Q 46.6138 50.3513, 46.6138 52.4513 Q 46.6138 54.5963, 47.4838 55.6763 Q 48.3688 56.7563, 49.9888 56.7563 " fill="#FF0000"/>
</g>
  <g id="id3:id0:id1:id1" transform="translate(0.0,153.0)">
    <text fill="black" font-family="Arial" font-size="15px" x="20" y="20">SMILES: C[C@H](n)O</text>
    <text fill="black" font-family="Arial" font-size="15px" x="20" y="40">1223 occurences (15.26%)</text>
    <text fill="black" font-family="Arial" font-size="15px" x="20" y="60">Average impact on prediction: -0.189</text>
  </g>
</g>
  <g id="id3:id1:id1" transform="translate(284.5044,0.0)"><g id="id3:id1:id0:id0" transform="matrix(1.0,0,0,1.0,53.06639999999999,0.0)"><!-- END OF HEADER -->
<rect style="opacity:1.0;fill:#FFFFFF;stroke:none" width="170" height="170" x="0" y="0"> </rect>
<path class="bond-0" d="M 118.694,84.9913 L 106.208,84.9913" style="fill:none;fill-rule:evenodd;stroke:#FF0000;stroke-width:2.0px;stroke-linecap:butt;stroke-linejoin:miter;stroke-opacity:1"/>
<path class="bond-0" d="M 106.208,84.9913 L 93.7222,84.9913" style="fill:none;fill-rule:evenodd;stroke:#FF7F00;stroke-width:2.0px;stroke-linecap:butt;stroke-linejoin:miter;stroke-opacity:1"/>
<path class="bond-1" d="M 89.5531,91.1722 L 89.4584,102.457" style="fill:none;fill-rule:evenodd;stroke:#FF7F00;stroke-width:2.0px;stroke-linecap:butt;stroke-linejoin:miter;stroke-opacity:1"/>
<path class="bond-1" d="M 89.4584,102.457 L 89.3636,113.742" style="fill:none;fill-rule:evenodd;stroke:#FF0000;stroke-width:2.0px;stroke-linecap:butt;stroke-linejoin:miter;stroke-opacity:1"/>
<path class="bond-2" d="M 85.3404,84.9913 L 72.8017,84.9913" style="fill:none;fill-rule:evenodd;stroke:#FF7F00;stroke-width:2.0px;stroke-linecap:butt;stroke-linejoin:miter;stroke-opacity:1"/>
<path class="bond-2" d="M 72.8017,84.9913 L 60.263,84.9913" style="fill:none;fill-rule:evenodd;stroke:#FF0000;stroke-width:2.0px;stroke-linecap:butt;stroke-linejoin:miter;stroke-opacity:1"/>
<path class="bond-3" d="M 93.3032,78.7752 L 93.2089,67.5026" style="fill:none;fill-rule:evenodd;stroke:#FF7F00;stroke-width:2.0px;stroke-linecap:butt;stroke-linejoin:miter;stroke-opacity:1"/>
<path class="bond-3" d="M 93.2089,67.5026 L 93.1147,56.2299" style="fill:none;fill-rule:evenodd;stroke:#FF0000;stroke-width:2.0px;stroke-linecap:butt;stroke-linejoin:miter;stroke-opacity:1"/>
<path class="bond-3" d="M 85.8034,78.8379 L 85.7092,67.5653" style="fill:none;fill-rule:evenodd;stroke:#FF7F00;stroke-width:2.0px;stroke-linecap:butt;stroke-linejoin:miter;stroke-opacity:1"/>
<path class="bond-3" d="M 85.7092,67.5653 L 85.6149,56.2926" style="fill:none;fill-rule:evenodd;stroke:#FF0000;stroke-width:2.0px;stroke-linecap:butt;stroke-linejoin:miter;stroke-opacity:1"/>
<path class="atom-0" d="M 119.565 85.0213 Q 119.565 82.4713, 120.825 81.0463 Q 122.085 79.6213, 124.44 79.6213 Q 126.795 79.6213, 128.055 81.0463 Q 129.315 82.4713, 129.315 85.0213 Q 129.315 87.6013, 128.04 89.0713 Q 126.765 90.5263, 124.44 90.5263 Q 122.1 90.5263, 120.825 89.0713 Q 119.565 87.6163, 119.565 85.0213 M 124.44 89.3263 Q 126.06 89.3263, 126.93 88.2463 Q 127.815 87.1513, 127.815 85.0213 Q 127.815 82.9363, 126.93 81.8863 Q 126.06 80.8213, 124.44 80.8213 Q 122.82 80.8213, 121.935 81.8713 Q 121.065 82.9213, 121.065 85.0213 Q 121.065 87.1663, 121.935 88.2463 Q 122.82 89.3263, 124.44 89.3263 " fill="#FF0000"/>
<path class="atom-1" d="M 89.35 79.6813 Q 91.165 79.6813, 92.08 80.5063 Q 92.995 81.3163, 92.995 82.8013 Q 92.995 84.2713, 92.05 85.1113 Q 91.12 85.9363, 89.35 85.9363 L 87.655 85.9363 L 87.655 90.3013 L 86.215 90.3013 L 86.215 79.6813 L 89.35 79.6813 M 89.35 84.7363 Q 90.385 84.7363, 90.94 84.2413 Q 91.495 83.7463, 91.495 82.8013 Q 91.495 81.8563, 90.94 81.3763 Q 90.4 80.8813, 89.35 80.8813 L 87.655 80.8813 L 87.655 84.7363 L 89.35 84.7363 " fill="#FF7F00"/>
<path class="atom-2" d="M 84.4375 119.859 Q 84.4375 117.309, 85.6975 115.884 Q 86.9575 114.459, 89.3125 114.459 Q 91.6675 114.459, 92.9275 115.884 Q 94.1875 117.309, 94.1875 119.859 Q 94.1875 122.439, 92.9125 123.909 Q 91.6375 125.364, 89.3125 125.364 Q 86.9725 125.364, 85.6975 123.909 Q 84.4375 122.454, 84.4375 119.859 M 89.3125 124.164 Q 90.9325 124.164, 91.8025 123.084 Q 92.6875 121.989, 92.6875 119.859 Q 92.6875 117.774, 91.8025 116.724 Q 90.9325 115.659, 89.3125 115.659 Q 87.6925 115.659, 86.8075 116.709 Q 85.9375 117.759, 85.9375 119.859 Q 85.9375 122.004, 86.8075 123.084 Q 87.6925 124.164, 89.3125 124.164 " fill="#FF0000"/>
<path class="atom-2" d="M 95.4625 114.579 L 96.9025 114.579 L 96.9025 119.094 L 102.332 119.094 L 102.332 114.579 L 103.772 114.579 L 103.772 125.199 L 102.332 125.199 L 102.332 120.294 L 96.9025 120.294 L 96.9025 125.199 L 95.4625 125.199 L 95.4625 114.579 " fill="#FF0000"/>
<path class="atom-3" d="M 40.685 79.7413 L 42.125 79.7413 L 42.125 84.2563 L 47.555 84.2563 L 47.555 79.7413 L 48.995 79.7413 L 48.995 90.3613 L 47.555 90.3613 L 47.555 85.4563 L 42.125 85.4563 L 42.125 90.3613 L 40.685 90.3613 L 40.685 79.7413 " fill="#FF0000"/>
<path class="atom-3" d="M 49.745 85.0213 Q 49.745 82.4713, 51.005 81.0463 Q 52.265 79.6213, 54.62 79.6213 Q 56.975 79.6213, 58.235 81.0463 Q 59.495 82.4713, 59.495 85.0213 Q 59.495 87.6013, 58.22 89.0713 Q 56.945 90.5263, 54.62 90.5263 Q 52.28 90.5263, 51.005 89.0713 Q 49.745 87.6163, 49.745 85.0213 M 54.62 89.3263 Q 56.24 89.3263, 57.11 88.2463 Q 57.995 87.1513, 57.995 85.0213 Q 57.995 82.9363, 57.11 81.8863 Q 56.24 80.8213, 54.62 80.8213 Q 53 80.8213, 52.115 81.8713 Q 51.245 82.9213, 51.245 85.0213 Q 51.245 87.1663, 52.115 88.2463 Q 53 89.3263, 54.62 89.3263 " fill="#FF0000"/>
<path class="atom-4" d="M 84.4375 50.0363 Q 84.4375 47.4863, 85.6975 46.0613 Q 86.9575 44.6363, 89.3125 44.6363 Q 91.6675 44.6363, 92.9275 46.0613 Q 94.1875 47.4863, 94.1875 50.0363 Q 94.1875 52.6163, 92.9125 54.0863 Q 91.6375 55.5413, 89.3125 55.5413 Q 86.9725 55.5413, 85.6975 54.0863 Q 84.4375 52.6313, 84.4375 50.0363 M 89.3125 54.3413 Q 90.9325 54.3413, 91.8025 53.2613 Q 92.6875 52.1663, 92.6875 50.0363 Q 92.6875 47.9513, 91.8025 46.9013 Q 90.9325 45.8363, 89.3125 45.8363 Q 87.6925 45.8363, 86.8075 46.8863 Q 85.9375 47.9363, 85.9375 50.0363 Q 85.9375 52.1813, 86.8075 53.2613 Q 87.6925 54.3413, 89.3125 54.3413 " fill="#FF0000"/>
</g>
  <g id="id3:id1:id1:id1" transform="translate(0.0,170.0)">
    <text fill="black" font-family="Arial" font-size="15px" x="20" y="20">SMILES: O=P(O)(O)O</text>
    <text fill="black" font-family="Arial" font-size="15px" x="20" y="40">1001 occurences (12.49%)</text>
    <text fill="black" font-family="Arial" font-size="15px" x="20" y="60">Average impact on prediction: -0.26</text>
  </g>
</g>
  <g id="id3:id2:id2" transform="translate(560.6371999999999,26.0)"><g id="id3:id2:id0:id0" transform="matrix(1.0,0,0,1.0,76.74119999999999,0.0)"><!-- END OF HEADER -->
<rect style="opacity:1.0;fill:#FFFFFF;stroke:none" width="131" height="118" x="0" y="0"> </rect>
<path class="bond-0" d="M 89.5389,44.949 L 76.8351,52.2838" style="fill:none;fill-rule:evenodd;stroke:#000000;stroke-width:2.0px;stroke-linecap:butt;stroke-linejoin:miter;stroke-opacity:1"/>
<path class="bond-0" d="M 76.8351,52.2838 L 64.1314,59.6185" style="fill:none;fill-rule:evenodd;stroke:#0000FF;stroke-width:2.0px;stroke-linecap:butt;stroke-linejoin:miter;stroke-opacity:1"/>
<path class="atom-1" d="M 40.4291 57.139 L 41.8691 57.139 L 41.8691 61.654 L 47.2991 61.654 L 47.2991 57.139 L 48.7391 57.139 L 48.7391 67.759 L 47.2991 67.759 L 47.2991 62.854 L 41.8691 62.854 L 41.8691 67.759 L 40.4291 67.759 L 40.4291 57.139 " fill="#0000FF"/>
<path class="atom-1" d="M 49.2539 67.3864 Q 49.5113 66.7231, 50.1251 66.3568 Q 50.7389 65.9806, 51.5903 65.9806 Q 52.6496 65.9806, 53.2436 66.5548 Q 53.8376 67.129, 53.8376 68.1487 Q 53.8376 69.1882, 53.0654 70.1584 Q 52.3031 71.1286, 50.7191 72.277 L 53.9564 72.277 L 53.9564 73.069 L 49.2341 73.069 L 49.2341 72.4057 Q 50.5409 71.4751, 51.3131 70.7821 Q 52.0952 70.0891, 52.4714 69.4654 Q 52.8476 68.8417, 52.8476 68.1982 Q 52.8476 67.525, 52.511 67.1488 Q 52.1744 66.7726, 51.5903 66.7726 Q 51.026 66.7726, 50.6498 67.0003 Q 50.2736 67.228, 50.0063 67.7329 L 49.2539 67.3864 " fill="#0000FF"/>
<path class="atom-1" d="M 56.8814 57.139 L 60.3614 62.764 Q 60.7064 63.319, 61.2614 64.324 Q 61.8164 65.329, 61.8464 65.389 L 61.8464 57.139 L 63.2564 57.139 L 63.2564 67.759 L 61.8014 67.759 L 58.0664 61.609 Q 57.6314 60.889, 57.1664 60.064 Q 56.7164 59.239, 56.5814 58.984 L 56.5814 67.759 L 55.2014 67.759 L 55.2014 57.139 L 56.8814 57.139 " fill="#0000FF"/>
</g>
  <g id="id3:id2:id1:id1" transform="translate(0.0,118.0)">
    <text fill="black" font-family="Arial" font-size="15px" x="20" y="20">SMILES: cN</text>
    <text fill="black" font-family="Arial" font-size="15px" x="20" y="40">702 occurences (8.76%)</text>
    <text fill="black" font-family="Arial" font-size="15px" x="20" y="60">Average impact on prediction: -0.193</text>
  </g>
</g>
  <g id="id3:id3:id3" transform="translate(845.1195999999999,1.0)"><g id="id3:id3:id0:id0" transform="matrix(1.0,0,0,1.0,55.71924999999999,0.0)"><!-- END OF HEADER -->
<rect style="opacity:1.0;fill:#FFFFFF;stroke:none" width="173" height="168" x="0" y="0"> </rect>
<path class="bond-0" d="M 77.2425,88.29 L 97.8571,74.6395 L 95.5555,71.6788 Z" style="fill:#000000;fill-rule:evenodd;fill-opacity:1;stroke:#000000;stroke-width:2px;stroke-linecap:butt;stroke-linejoin:miter;stroke-opacity:1;"/>
<path class="bond-0" d="M 97.8571,74.6395 L 113.869,55.0676 L 118.472,60.9889 Z" style="fill:#FF0000;fill-rule:evenodd;fill-opacity:1;stroke:#FF0000;stroke-width:2px;stroke-linecap:butt;stroke-linejoin:miter;stroke-opacity:1;"/>
<path class="bond-0" d="M 97.8571,74.6395 L 95.5555,71.6788 L 113.869,55.0676 Z" style="fill:#FF0000;fill-rule:evenodd;fill-opacity:1;stroke:#FF0000;stroke-width:2px;stroke-linecap:butt;stroke-linejoin:miter;stroke-opacity:1;"/>
<path class="bond-1" d="M 77.9925,113.854 L 76.4925,113.854" style="fill:none;fill-rule:evenodd;stroke:#000000;stroke-width:1.0px;stroke-linecap:butt;stroke-linejoin:miter;stroke-opacity:1"/>
<path class="bond-1" d="M 78.7425,107.463 L 75.7425,107.463" style="fill:none;fill-rule:evenodd;stroke:#000000;stroke-width:1.0px;stroke-linecap:butt;stroke-linejoin:miter;stroke-opacity:1"/>
<path class="bond-1" d="M 79.4925,101.072 L 74.9925,101.072" style="fill:none;fill-rule:evenodd;stroke:#000000;stroke-width:1.0px;stroke-linecap:butt;stroke-linejoin:miter;stroke-opacity:1"/>
<path class="bond-1" d="M 80.2425,94.681 L 74.2425,94.681" style="fill:none;fill-rule:evenodd;stroke:#000000;stroke-width:1.0px;stroke-linecap:butt;stroke-linejoin:miter;stroke-opacity:1"/>
<path class="bond-1" d="M 80.9925,88.29 L 73.4925,88.29" style="fill:none;fill-rule:evenodd;stroke:#000000;stroke-width:1.0px;stroke-linecap:butt;stroke-linejoin:miter;stroke-opacity:1"/>
<path class="bond-2" d="M 77.2425,88.29 L 66.2204,81.9082" style="fill:none;fill-rule:evenodd;stroke:#000000;stroke-width:2.0px;stroke-linecap:butt;stroke-linejoin:miter;stroke-opacity:1"/>
<path class="bond-2" d="M 66.2204,81.9082 L 55.1983,75.5263" style="fill:none;fill-rule:evenodd;stroke:#FF0000;stroke-width:2.0px;stroke-linecap:butt;stroke-linejoin:miter;stroke-opacity:1"/>
<path class="atom-1" d="M 117.602 53.155 Q 117.602 50.605, 118.862 49.18 Q 120.122 47.755, 122.477 47.755 Q 124.832 47.755, 126.092 49.18 Q 127.352 50.605, 127.352 53.155 Q 127.352 55.735, 126.077 57.205 Q 124.802 58.66, 122.477 58.66 Q 120.137 58.66, 118.862 57.205 Q 117.602 55.75, 117.602 53.155 M 122.477 57.46 Q 124.097 57.46, 124.967 56.38 Q 125.852 55.285, 125.852 53.155 Q 125.852 51.07, 124.967 50.02 Q 124.097 48.955, 122.477 48.955 Q 120.857 48.955, 119.972 50.005 Q 119.102 51.055, 119.102 53.155 Q 119.102 55.3, 119.972 56.38 Q 120.857 57.46, 122.477 57.46 " fill="#FF0000"/>
<path class="atom-3" d="M 44.6475 72.27 Q 44.6475 69.72, 45.9075 68.295 Q 47.1675 66.87, 49.5225 66.87 Q 51.8775 66.87, 53.1375 68.295 Q 54.3975 69.72, 54.3975 72.27 Q 54.3975 74.85, 53.1225 76.32 Q 51.8475 77.775, 49.5225 77.775 Q 47.1825 77.775, 45.9075 76.32 Q 44.6475 74.865, 44.6475 72.27 M 49.5225 76.575 Q 51.1425 76.575, 52.0125 75.495 Q 52.8975 74.4, 52.8975 72.27 Q 52.8975 70.185, 52.0125 69.135 Q 51.1425 68.07, 49.5225 68.07 Q 47.9025 68.07, 47.0175 69.12 Q 46.1475 70.17, 46.1475 72.27 Q 46.1475 74.415, 47.0175 75.495 Q 47.9025 76.575, 49.5225 76.575 " fill="#FF0000"/>
</g>
  <g id="id3:id3:id1:id1" transform="translate(0.0,168.0)">
    <text fill="black" font-family="Arial" font-size="15px" x="20" y="20">SMILES: CC(O)O</text>
    <text fill="black" font-family="Arial" font-size="15px" x="20" y="40">630 occurences (7.86%)</text>
    <text fill="black" font-family="Arial" font-size="15px" x="20" y="60">Average impact on prediction: -0.214</text>
  </g>
</g>
  <g id="id3:id4:id4" transform="translate(1129.5580999999997,24.0)"><g id="id3:id4:id0:id0" transform="matrix(1.0,0,0,1.0,63.73755,0.0)"><!-- END OF HEADER -->
<rect style="opacity:1.0;fill:#FFFFFF;stroke:none" width="157" height="122" x="0" y="0"> </rect>
<path class="bond-0" d="M 106.02,74.1632 L 95.8305,64.2067 L 93.5855,67.2104 Z" style="fill:#000000;fill-rule:evenodd;fill-opacity:1;stroke:#000000;stroke-width:2px;stroke-linecap:butt;stroke-linejoin:miter;stroke-opacity:1;"/>
<path class="bond-0" d="M 95.8305,64.2067 L 81.1509,60.2577 L 85.6409,54.2502 Z" style="fill:#FF0000;fill-rule:evenodd;fill-opacity:1;stroke:#FF0000;stroke-width:2px;stroke-linecap:butt;stroke-linejoin:miter;stroke-opacity:1;"/>
<path class="bond-0" d="M 95.8305,64.2067 L 93.5855,67.2104 L 81.1509,60.2577 Z" style="fill:#FF0000;fill-rule:evenodd;fill-opacity:1;stroke:#FF0000;stroke-width:2px;stroke-linecap:butt;stroke-linejoin:miter;stroke-opacity:1;"/>
<path class="bond-1" d="M 49.98,72.6982 L 62.0349,66.3932 L 59.8555,63.3415 Z" style="fill:#000000;fill-rule:evenodd;fill-opacity:1;stroke:#000000;stroke-width:2px;stroke-linecap:butt;stroke-linejoin:miter;stroke-opacity:1;"/>
<path class="bond-1" d="M 62.0349,66.3932 L 69.731,53.9848 L 74.0898,60.0881 Z" style="fill:#FF0000;fill-rule:evenodd;fill-opacity:1;stroke:#FF0000;stroke-width:2px;stroke-linecap:butt;stroke-linejoin:miter;stroke-opacity:1;"/>
<path class="bond-1" d="M 62.0349,66.3932 L 59.8555,63.3415 L 69.731,53.9848 Z" style="fill:#FF0000;fill-rule:evenodd;fill-opacity:1;stroke:#FF0000;stroke-width:2px;stroke-linecap:butt;stroke-linejoin:miter;stroke-opacity:1;"/>
<path class="atom-1" d="M 72.76 52.9782 Q 72.76 50.4282, 74.02 49.0032 Q 75.28 47.5782, 77.635 47.5782 Q 79.99 47.5782, 81.25 49.0032 Q 82.51 50.4282, 82.51 52.9782 Q 82.51 55.5582, 81.235 57.0282 Q 79.96 58.4832, 77.635 58.4832 Q 75.295 58.4832, 74.02 57.0282 Q 72.76 55.5732, 72.76 52.9782 M 77.635 57.2832 Q 79.255 57.2832, 80.125 56.2032 Q 81.01 55.1082, 81.01 52.9782 Q 81.01 50.8932, 80.125 49.8432 Q 79.255 48.7782, 77.635 48.7782 Q 76.015 48.7782, 75.13 49.8282 Q 74.26 50.8782, 74.26 52.9782 Q 74.26 55.1232, 75.13 56.2032 Q 76.015 57.2832, 77.635 57.2832 " fill="#FF0000"/>
</g>
  <g id="id3:id4:id1:id1" transform="translate(0.0,122.0)">
    <text fill="black" font-family="Arial" font-size="15px" x="20" y="20">SMILES: COC</text>
    <text fill="black" font-family="Arial" font-size="15px" x="20" y="40">466 occurences (5.81%)</text>
    <text fill="black" font-family="Arial" font-size="15px" x="20" y="60">Average impact on prediction: -0.216</text>
  </g>
</g>
</g>
</svg>
